<?xml version="1.0" encoding="UTF-8" standalone="no"?>
<!-- Created with Inkscape (http://www.inkscape.org/) -->

<svg
   xmlns:dc="http://purl.org/dc/elements/1.1/"
   xmlns:cc="http://creativecommons.org/ns#"
   xmlns:rdf="http://www.w3.org/1999/02/22-rdf-syntax-ns#"
   xmlns:svg="http://www.w3.org/2000/svg"
   xmlns="http://www.w3.org/2000/svg"
   xmlns:sodipodi="http://sodipodi.sourceforge.net/DTD/sodipodi-0.dtd"
   xmlns:inkscape="http://www.inkscape.org/namespaces/inkscape"
   width="210mm"
   height="297mm"
   viewBox="0 0 744.09448819 1052.3622047"
   id="svg2"
   version="1.1"
   inkscape:version="0.91 r13725"
   sodipodi:docname="barchart1.svg">
  <sodipodi:namedview
     id="base"
     pagecolor="#ffffff"
     bordercolor="#666666"
     borderopacity="1.0"
     inkscape:pageopacity="0.0"
     inkscape:pageshadow="2"
     inkscape:zoom="0.41012193"
     inkscape:cx="871.19244"
     inkscape:cy="604.95541"
     inkscape:document-units="px"
     inkscape:current-layer="layer1"
     showgrid="false"
     inkscape:snap-grids="true"
     inkscape:snap-to-guides="true"
     inkscape:snap-page="false"
     inkscape:window-width="1440"
     inkscape:window-height="775"
     inkscape:window-x="41"
     inkscape:window-y="0"
     inkscape:window-maximized="0"
     inkscape:object-nodes="false">
    <inkscape:grid
       id="grid3336"
       type="xygrid" />
  </sodipodi:namedview>
  <defs
     id="defs4">
    <inkscape:path-effect
       nr_y="7"
       nr_x="5"
       is_visible="true"
       id="path-effect4141"
       effect="construct_grid" />
  </defs>
  <metadata
     id="metadata7">
    <rdf:RDF>
      <cc:Work
         rdf:about="">
        <dc:format>image/svg+xml</dc:format>
        <dc:type
           rdf:resource="http://purl.org/dc/dcmitype/StillImage" />
        <dc:title></dc:title>
      </cc:Work>
    </rdf:RDF>
  </metadata>
  <g
     id="layer1"
     inkscape:groupmode="layer"
     inkscape:label="Layer 1">
    <path
       style="color:#000000;font-style:normal;font-variant:normal;font-weight:normal;font-stretch:normal;font-size:medium;line-height:normal;font-family:sans-serif;text-indent:0;text-align:start;text-decoration:none;text-decoration-line:none;text-decoration-style:solid;text-decoration-color:#000000;letter-spacing:normal;word-spacing:normal;text-transform:none;direction:ltr;block-progression:tb;writing-mode:lr-tb;baseline-shift:baseline;text-anchor:start;white-space:normal;clip-rule:nonzero;display:inline;overflow:visible;visibility:visible;opacity:1;isolation:auto;mix-blend-mode:normal;color-interpolation:sRGB;color-interpolation-filters:linearRGB;solid-color:#000000;solid-opacity:1;fill:#800000;fill-opacity:1;fill-rule:evenodd;stroke:none;stroke-width:19.80916786;stroke-linecap:round;stroke-linejoin:round;stroke-miterlimit:4;stroke-dasharray:none;stroke-dashoffset:0;stroke-opacity:1;color-rendering:auto;image-rendering:auto;shape-rendering:auto;text-rendering:auto;enable-background:accumulate"
       d="m 366.03461,298.10134 a 3.8718469,3.8718469 0 0 0 -3.4147,2.00328 l -20.6065,37.41605 a 3.8718469,3.8718469 0 0 0 -0.066,0.1361 3.8718469,3.8718469 0 0 0 -0.098,0.19862 3.8718469,3.8718469 0 0 0 -0.06,0.15929 3.8718469,3.8718469 0 0 0 -0.073,0.1966 3.8718469,3.8718469 0 0 0 -0.053,0.19861 3.8718469,3.8718469 0 0 0 -0.045,0.17845 3.8718469,3.8718469 0 0 0 -0.03,0.17845 3.8718469,3.8718469 0 0 0 -0.031,0.20467 3.8718469,3.8718469 0 0 0 -0.011,0.17139 3.8718469,3.8718469 0 0 0 -0.011,0.21676 3.8718469,3.8718469 0 0 0 0.01,0.15325 3.8718469,3.8718469 0 0 0 0.011,0.2339 3.8718469,3.8718469 0 0 0 0.019,0.13812 3.8718469,3.8718469 0 0 0 0.038,0.2591 3.8718469,3.8718469 0 0 0 0,10e-4 3.8718469,3.8718469 0 0 0 0.001,0.002 3.8718469,3.8718469 0 0 0 0.028,0.1351 l 47.8993,201.8321 a 3.8718469,3.8718469 0 0 0 0.1078,0.37202 3.8718469,3.8718469 0 0 0 0.3247,0.7017 3.8718469,3.8718469 0 0 0 0.7299,0.89729 3.8718469,3.8718469 0 0 0 0.2994,0.246 3.8718469,3.8718469 0 0 0 0.3156,0.21071 3.8718469,3.8718469 0 0 1 -0.3156,-0.21071 3.8718469,3.8718469 0 0 1 -0.2994,-0.246 3.8718469,3.8718469 0 0 1 -0.7299,-0.89729 3.8718469,3.8718469 0 0 1 -0.3247,-0.7017 3.8718469,3.8718469 0 0 1 -0.1099,-0.37202 l -0.5807,-2.44688 -43.1284,-15.39712 19.4581,-35.58013 12.5106,3.95413 -1.3368,-5.63277 -8.7653,-2.72616 5.6621,-10.35212 -2.0225,-8.52225 -7.2358,13.23959 -11.4137,-39.50502 13.2708,3.60429 -1.2592,-5.30612 -13.5481,-3.61437 -4.9049,-16.97696 9.4428,-17.37721 -2.083,-8.77329 -15.9486,-3.57505 -9.6473,-33.38832 a 3.0974775,3.0974775 0 0 0 -0.011,-0.0333 3.0974775,3.0974775 0 0 0 -0.037,-0.10788 3.0974775,3.0974775 0 0 0 -0.07,-0.19055 3.0974775,3.0974775 0 0 0 -0.035,-0.0766 3.0974775,3.0974775 0 0 0 -0.095,-0.1976 3.0974775,3.0974775 0 0 0 -0.057,-0.0978 3.0974775,3.0974775 0 0 0 -0.1028,-0.16736 3.0974775,3.0974775 0 0 0 -0.059,-0.0817 3.0974775,3.0974775 0 0 0 -0.1311,-0.1724 3.0974775,3.0974775 0 0 0 -0.046,-0.0514 3.0974775,3.0974775 0 0 0 -0.1623,-0.17442 3.0974775,3.0974775 0 0 0 -0.055,-0.0514 3.0974775,3.0974775 0 0 0 -0.1805,-0.15728 3.0974775,3.0974775 0 0 0 -0.044,-0.0323 3.0974775,3.0974775 0 0 0 -0.2006,-0.14416 3.0974775,3.0974775 0 0 0 -0.076,-0.0454 3.0974775,3.0974775 0 0 0 -0.1905,-0.10989 3.0974775,3.0974775 0 0 0 -0.096,-0.0444 3.0974775,3.0974775 0 0 0 -0.1814,-0.0817 3.0974775,3.0974775 0 0 0 -0.2098,-0.0756 l -0.049,-0.0151 -43.8261,-13.85156 a 3.0974775,3.0974775 0 0 0 -0.9144,-0.14316 3.0974775,3.0974775 0 0 0 -2.7403,1.61815 l -16.7592,30.84263 -33.6202,-7.53624 c -0.1116,-0.0456 -0.2302,-0.0814 -0.3539,-0.10788 l 0,-10e-4 c -0.1349,-0.028 -0.2742,-0.0439 -0.4164,-0.0484 -0.4265,-0.0134 -0.8773,0.0779 -1.2966,0.26717 -0.024,0.0102 -0.049,0.0215 -0.072,0.0323 -0.6832,0.31678 -1.2063,0.85945 -1.4105,1.46289 l -13.0147,24.35189 -15.7672,-4.98249 a 2.4521697,2.4521697 0 0 0 -0.7239,-0.11393 2.4521697,2.4521697 0 0 0 -2.1746,1.2915 l -16.6665,31.01503 a 2.4521697,2.4521697 0 0 0 -0.046,0.0988 2.4521697,2.4521697 0 0 0 -0.048,0.10183 2.4521697,2.4521697 0 0 0 -0.044,0.11594 2.4521697,2.4521697 0 0 0 -0.039,0.10989 2.4521697,2.4521697 0 0 0 -0.034,0.12502 2.4521697,2.4521697 0 0 0 -0.028,0.11392 2.4521697,2.4521697 0 0 0 -0.021,0.13208 2.4521697,2.4521697 0 0 0 -0.015,0.10989 2.4521697,2.4521697 0 0 0 -0.01,0.15022 2.4521697,2.4521697 0 0 0 0,0.0867 2.4521697,2.4521697 0 0 0 0.01,0.13913 2.4521697,2.4521697 0 0 0 0.01,0.11795 2.4521697,2.4521697 0 0 0 0.018,0.13006 2.4521697,2.4521697 0 0 0 0.016,0.10183 2.4521697,2.4521697 0 0 0 0.034,0.14115 2.4521697,2.4521697 0 0 0 0.027,0.10283 2.4521697,2.4521697 0 0 0 0.039,0.11292 2.4521697,2.4521697 0 0 0 0.045,0.12098 2.4521697,2.4521697 0 0 0 0.035,0.0786 2.4521697,2.4521697 0 0 0 0.047,0.10183 l 9.6525,18.58099 20.6961,39.83571 a 2.4521697,2.4521697 0 0 0 0.123,0.21071 2.4521697,2.4521697 0 0 1 -0.124,-0.21071 l -1.2169,-2.34204 -29.3142,-10.46504 12.1104,-22.64904 -2.2744,-4.37959 -14.5231,27.17281 c -0.1386,0.1837 -0.2457,0.38371 -0.3166,0.59181 l -17.3933,32.54445 c -0.1375,0.18164 -0.2436,0.38117 -0.3146,0.5898 l -17.3237,32.41541 c -0.4018,0.5288 -0.5253,1.19799 -0.3317,1.80063 0.01,0.022 0.014,0.0448 0.02,0.0665 0.2025,0.59528 0.6931,1.0481 1.3217,1.22092 l 34.3491,15.79838 c 0.1977,0.13258 0.4175,0.23365 0.6513,0.29943 l 37.4533,17.22397 c 0.2166,0.14322 0.4563,0.2542 0.7108,0.32766 l 40.9962,18.85421 c 0.2382,0.15521 0.5021,0.27557 0.7803,0.35791 l 45.0672,20.72743 c 0.2635,0.16904 0.5544,0.30255 0.86,0.39521 l 49.7755,22.89202 c 0.2929,0.18514 0.615,0.33275 0.9527,0.43756 l 55.2641,25.41654 c 0.3272,0.20369 0.6849,0.36785 1.0596,0.48695 l 61.7135,28.38163 c 1.082,0.6639 2.4075,0.94686 3.564,0.75918 0.042,-0.006 0.084,-0.0114 0.126,-0.0181 1.1416,-0.20194 1.969,-0.84368 2.2261,-1.72805 l 25.4851,-45.51989 c 0.2205,-0.24747 0.3778,-0.52778 0.4647,-0.82975 l 25.6283,-45.77598 c 0.2232,-0.2516 0.3818,-0.53385 0.4678,-0.83478 l 25.7745,-46.03609 c 0.2257,-0.25568 0.3836,-0.53814 0.4688,-0.83781 l 25.9216,-46.29822 c 0.2283,-0.25989 0.3873,-0.54525 0.4718,-0.84386 l 26.0689,-46.56035 c 0.6839,-0.78129 0.7245,-1.72561 0.1099,-2.5346 -0.018,-0.025 -0.034,-0.0499 -0.053,-0.0746 l 0,-10e-4 c 0,-0.002 -3e-4,-0.003 -0.01,-0.005 -0.6211,-0.78935 -1.7961,-1.34835 -3.1667,-1.50624 l -69.9031,-15.66832 c -0.3707,-0.13139 -0.7728,-0.22078 -1.1907,-0.26616 l -62.5029,-14.00985 c -0.3313,-0.12002 -0.6918,-0.20142 -1.0677,-0.23995 l -16.9124,-3.7908 1.4609,5.50876 10.1172,2.31481 -6.4151,11.65672 -5.163,-19.48029 -24.9043,-93.97163 a 3.8718469,3.8718469 0 0 0 -0.018,-0.0575 3.8718469,3.8718469 0 0 0 -0.067,-0.20668 3.8718469,3.8718469 0 0 0 -0.054,-0.15426 3.8718469,3.8718469 0 0 0 -0.095,-0.21676 3.8718469,3.8718469 0 0 0 -0.065,-0.1351 3.8718469,3.8718469 0 0 0 -0.1109,-0.19961 3.8718469,3.8718469 0 0 0 -0.084,-0.13712 3.8718469,3.8718469 0 0 0 -0.133,-0.19156 3.8718469,3.8718469 0 0 0 -0.089,-0.11796 3.8718469,3.8718469 0 0 0 -0.1593,-0.1855 3.8718469,3.8718469 0 0 0 -0.097,-0.10586 3.8718469,3.8718469 0 0 0 -0.1764,-0.16736 3.8718469,3.8718469 0 0 0 -0.1038,-0.0928 3.8718469,3.8718469 0 0 0 -0.2047,-0.15929 3.8718469,3.8718469 0 0 0 -0.1,-0.0726 3.8718469,3.8718469 0 0 0 -0.2198,-0.13812 3.8718469,3.8718469 0 0 0 -0.1129,-0.0655 3.8718469,3.8718469 0 0 0 -0.2248,-0.11191 3.8718469,3.8718469 0 0 0 -0.126,-0.0575 3.8718469,3.8718469 0 0 0 -0.3166,-0.11998 3.8718469,3.8718469 0 0 0 -0.019,-0.007 l -53.8829,-17.02837 a 3.8718469,3.8718469 0 0 0 -1.1432,-0.17946 z m 1.8359,8.51923 46.3406,14.64501 -17.8572,32.20066 -45.3646,-16.1946 16.8812,-30.65107 z m 50.7454,22.6682 51.2091,193.23323 -16.3277,29.44225 -51.2101,-193.23121 0,-0.001 13.3202,-24.01918 3.0085,-5.42408 z m -135.9609,15.16624 37.8506,11.96221 -16.2662,29.76387 -37.0672,-13.23254 15.4828,-28.49354 z m 68.1619,0.97694 44.1084,15.74596 0,10e-4 44.1024,166.41027 7.5645,28.54496 -50.0074,-17.85308 -45.7679,-192.84911 z m -26.6768,17.25018 34.5175,119.46276 -19.6275,35.91384 -30.0542,-127.62711 15.1642,-27.74949 z m -96.3328,3.97933 31.9003,7.2973 a 3.0974775,3.0974775 0 0 0 -0.018,0.0696 3.0974775,3.0974775 0 0 0 -0.012,0.0766 3.0974775,3.0974775 0 0 0 -0.034,0.23088 3.0974775,3.0974775 0 0 0 -0.01,0.0857 3.0974775,3.0974775 0 0 0 -0.01,0.21373 3.0974775,3.0974775 0 0 0 0.01,0.12905 3.0974775,3.0974775 0 0 0 0.01,0.18147 3.0974775,3.0974775 0 0 0 0.016,0.11897 3.0974775,3.0974775 0 0 0 0.032,0.20467 3.0974775,3.0974775 0 0 0 0,0.004 3.0974775,3.0974775 0 0 0 0.019,0.0887 l 9.7431,41.17862 22.5493,95.29437 a 3.0974775,3.0974775 0 0 0 0.068,0.23188 3.0974775,3.0974775 0 0 1 -0.069,-0.23188 l -1.7523,-7.40619 -37.0823,-13.23857 17.5042,-32.4013 9.4882,2.99837 -1.2089,-5.10751 -6.1126,-1.90145 3.938,-7.28923 -1.6787,-7.09566 -5.6509,10.46706 -23.4365,-35.6991 2.3391,-4.35236 21.1044,5.73157 -1.1392,-4.8111 -17.8944,-4.7748 11.6396,-21.66202 -1.5456,-6.52805 -14.5069,27.01251 -7.4647,-1.9922 -9e-4,0 -5.0874,-7.74997 a 2.4521697,2.4521697 0 0 0 -0.02,-0.0282 2.4521697,2.4521697 0 0 0 -0.068,-0.0907 2.4521697,2.4521697 0 0 0 -0.075,-0.0978 2.4521697,2.4521697 0 0 0 -0.093,-0.10385 2.4521697,2.4521697 0 0 0 -0.072,-0.0756 2.4521697,2.4521697 0 0 0 -0.1019,-0.0928 2.4521697,2.4521697 0 0 0 -0.086,-0.0746 2.4521697,2.4521697 0 0 0 -0.1028,-0.0756 2.4521697,2.4521697 0 0 0 -0.09,-0.0645 2.4521697,2.4521697 0 0 0 -0.1189,-0.0716 2.4521697,2.4521697 0 0 0 -0.097,-0.0544 2.4521697,2.4521697 0 0 0 -0.1038,-0.0494 2.4521697,2.4521697 0 0 0 -0.124,-0.0544 2.4521697,2.4521697 0 0 0 -0.1613,-0.0585 l -0.029,-0.009 -0.01,-0.003 a 2.4521697,2.4521697 0 0 0 0,-10e-4 l -16.6483,-5.26075 12.3564,-23.10778 z m 39.2419,12.82119 36.0106,12.85547 30.4837,129.44286 -35.8996,-13.00065 -30.5947,-129.29768 z m -70.8658,9.3399 31.6521,10.00329 -14.9988,27.78175 -31.008,-11.06995 14.3547,-26.71509 z m 142.9103,3.29679 12.9068,2.95198 -7.8679,14.48673 -5.0389,-17.43871 z m -107.4865,10.04362 33.6606,51.27163 -16.7804,31.08157 -31.6855,-54.93138 0,-0.001 10.2311,-18.94899 4.5742,-8.47183 z m 10.4167,6.9293 1.9226,0.52224 -0.7108,1.32376 -1.2118,-1.846 z m -58.6526,12.20317 28.9492,10.33498 30.7811,53.36464 -32.7037,-11.67588 -27.0266,-52.02374 z m 283.3555,0.0212 56.483,12.92099 -21.9806,39.63508 -39.0473,-10.41765 1.5516,5.85154 34.7897,9.44879 -21.8456,39.39311 1.0324,3.89666 a 3.8718469,3.8718469 0 0 1 0.013,0.0605 3.8718469,3.8718469 0 0 0 -0.014,-0.0605 l -15.5272,-58.5901 -6.0633,-22.87791 10.6082,-19.26051 z m 63.8499,14.60569 63.1673,14.45042 -23.4506,41.9267 -61.8496,-16.5021 22.1329,-39.87502 z m -260.2922,16.23996 a 2.4521697,2.4521697 0 0 1 0.032,0.0665 2.4521697,2.4521697 0 0 0 -0.032,-0.0665 z m 0.1039,0.2218 a 2.4521697,2.4521697 0 0 1 0.026,0.0686 2.4521697,2.4521697 0 0 0 -0.026,-0.0686 z m 0.083,0.23491 a 2.4521697,2.4521697 0 0 1 0.016,0.0595 2.4521697,2.4521697 0 0 0 -0.016,-0.0595 z m 0.057,0.24096 a 2.4521697,2.4521697 0 0 1 0.01,0.0454 2.4521697,2.4521697 0 0 0 -0.01,-0.0454 z m 0.034,0.24298 a 2.4521697,2.4521697 0 0 1 0,0.0464 2.4521697,2.4521697 0 0 0 0,-0.0464 z m 0.01,0.247 a 2.4521697,2.4521697 0 0 1 0,0.0424 2.4521697,2.4521697 0 0 0 0,-0.0424 z m -0.015,0.2339 a 2.4521697,2.4521697 0 0 1 -0.011,0.0807 2.4521697,2.4521697 0 0 0 0.011,-0.0807 z m -0.039,0.24499 a 2.4521697,2.4521697 0 0 1 -0.016,0.0635 2.4521697,2.4521697 0 0 0 0.016,-0.0635 z m -0.064,0.23995 a 2.4521697,2.4521697 0 0 1 -0.018,0.0494 2.4521697,2.4521697 0 0 0 0.018,-0.0494 z m -0.089,0.23189 a 2.4521697,2.4521697 0 0 1 -0.042,0.0887 2.4521697,2.4521697 0 0 0 0.042,-0.0887 z m -96.365,12.99459 32.6251,11.81501 -16.5102,30.74282 -31.9556,-12.93309 15.8407,-29.62474 z m 32.6261,9.3641 a 2.4521697,2.4521697 0 0 0 0.1351,0.1855 2.4521697,2.4521697 0 0 0 0.1633,0.1835 2.4521697,2.4521697 0 0 1 -0.1633,-0.1835 2.4521697,2.4521697 0 0 1 -0.1351,-0.1855 z m 0.3035,0.37303 a 2.4521697,2.4521697 0 0 0 0.1744,0.1603 2.4521697,2.4521697 0 0 1 -0.1744,-0.1603 z m 0.1885,0.17139 a 2.4521697,2.4521697 0 0 0 0.1765,0.13207 2.4521697,2.4521697 0 0 1 -0.1765,-0.13207 z m 0.2601,0.18349 a 2.4521697,2.4521697 0 0 0 0.126,0.0756 2.4521697,2.4521697 0 0 1 -0.126,-0.0756 z m 0.2046,0.11392 a 2.4521697,2.4521697 0 0 0 0.1432,0.0675 2.4521697,2.4521697 0 0 1 -0.1432,-0.0675 z m 0.2209,0.0958 a 2.4521697,2.4521697 0 0 0 0.1532,0.0544 2.4521697,2.4521697 0 0 1 -0.1532,-0.0544 z m 0.2389,0.0756 a 2.4521697,2.4521697 0 0 0 0.1512,0.0373 2.4521697,2.4521697 0 0 1 -0.1512,-0.0373 z m 0.245,0.0514 a 2.4521697,2.4521697 0 0 0 0.1472,0.0222 2.4521697,2.4521697 0 0 1 -0.1472,-0.0222 z m 2.5427,2.90863 35.5841,12.88773 -17.3328,32.10287 -34.8482,-14.10361 16.5969,-30.88699 z m 294.8903,0.0766 61.6883,16.75414 -23.3195,41.69179 -60.3837,-18.78363 22.0149,-39.6623 z m -140.6903,1.22293 a 3.0974775,3.0974775 0 0 1 0.018,0.11998 3.0974775,3.0974775 0 0 0 -0.018,-0.11998 z m 0.042,0.30045 a 3.0974775,3.0974775 0 0 1 0.01,0.13106 3.0974775,3.0974775 0 0 0 -0.01,-0.13106 z m 0.012,0.31254 a 3.0974775,3.0974775 0 0 1 -0.01,0.14518 3.0974775,3.0974775 0 0 0 0.01,-0.14518 z m -0.018,0.30044 a 3.0974775,3.0974775 0 0 1 -0.024,0.15929 3.0974775,3.0974775 0 0 0 0.024,-0.15929 z m -0.05,0.31153 a 3.0974775,3.0974775 0 0 1 -0.038,0.14921 3.0974775,3.0974775 0 0 0 0.038,-0.14921 z m -0.077,0.29137 a 3.0974775,3.0974775 0 0 1 -0.057,0.15425 3.0974775,3.0974775 0 0 0 0.057,-0.15425 z m -0.1119,0.29842 a 3.0974775,3.0974775 0 0 1 -0.121,0.24903 3.0974775,3.0974775 0 0 0 0.121,-0.24903 z m -114.1315,7.00089 a 2.4521697,2.4521697 0 0 1 0,0.002 2.4521697,2.4521697 0 0 1 -0.01,0.0101 2.4521697,2.4521697 0 0 1 -0.026,0.0393 2.4521697,2.4521697 0 0 0 0.025,-0.0393 2.4521697,2.4521697 0 0 0 0.01,-0.0101 2.4521697,2.4521697 0 0 0 0.001,-0.002 z m -0.4527,0.57971 a 2.4521697,2.4521697 0 0 0 0,10e-4 2.4521697,2.4521697 0 0 1 -0.124,0.10687 2.4521697,2.4521697 0 0 1 -0.06,0.0514 2.4521697,2.4521697 0 0 1 -0.01,0.007 2.4521697,2.4521697 0 0 1 -0.085,0.0585 2.4521697,2.4521697 0 0 1 -0.1139,0.0786 2.4521697,2.4521697 0 0 1 -0.01,0.002 2.4521697,2.4521697 0 0 0 0,-0.002 2.4521697,2.4521697 0 0 0 0.114,-0.0786 2.4521697,2.4521697 0 0 0 0.085,-0.0585 2.4521697,2.4521697 0 0 0 0.01,-0.007 2.4521697,2.4521697 0 0 0 0.061,-0.0514 2.4521697,2.4521697 0 0 0 0.124,-0.10687 2.4521697,2.4521697 0 0 0 0,-10e-4 z m 0.7663,3.85634 38.9656,14.11167 -18.2402,33.58995 -38.1541,-15.44147 17.4287,-32.26015 z m -94.8024,5.38778 31.873,13.07021 -16.4416,30.61578 -31.2086,-14.17922 15.7772,-29.50677 z m 135.9013,11.60732 a 3.0974775,3.0974775 0 0 0 0.061,0.15325 3.0974775,3.0974775 0 0 1 -0.061,-0.15325 z m 0.1301,0.30548 a 3.0974775,3.0974775 0 0 0 0.059,0.1109 3.0974775,3.0974775 0 0 1 -0.059,-0.1109 z m 0.1522,0.27423 a 3.0974775,3.0974775 0 0 0 0.066,0.0978 3.0974775,3.0974775 0 0 1 -0.066,-0.0978 z m 0.1795,0.25709 a 3.0974775,3.0974775 0 0 0 0.06,0.0756 3.0974775,3.0974775 0 0 1 -0.06,-0.0756 z m 0.2147,0.24903 a 3.0974775,3.0974775 0 0 0 0.044,0.0444 3.0974775,3.0974775 0 0 1 -0.044,-0.0444 z m 0.2188,0.20667 a 3.0974775,3.0974775 0 0 0 0.056,0.0454 3.0974775,3.0974775 0 0 1 -0.056,-0.0454 z m 0.5364,0.369 a 3.0974775,3.0974775 0 0 0 0.4224,0.19357 l 42.4056,15.3578 -17.7442,32.47086 -41.9529,-16.97897 16.8691,-31.04326 z m -101.3516,1.48608 34.7574,14.25282 -17.2582,31.96474 -34.0276,-15.45962 16.5284,-30.75794 z m 285.5856,7.00996 a 3.8718469,3.8718469 0 0 1 0.035,0.24801 3.8718469,3.8718469 0 0 0 -0.035,-0.24801 z m 0.051,0.39017 a 3.8718469,3.8718469 0 0 1 0.011,0.2339 3.8718469,3.8718469 0 0 0 -0.011,-0.2339 z m 0.012,0.38513 a 3.8718469,3.8718469 0 0 1 -0.014,0.25003 3.8718469,3.8718469 0 0 0 0.014,-0.25003 z m -0.026,0.38009 a 3.8718469,3.8718469 0 0 1 -0.04,0.25709 3.8718469,3.8718469 0 0 0 0.04,-0.25709 z m -0.064,0.38009 a 3.8718469,3.8718469 0 0 1 -0.064,0.24499 3.8718469,3.8718469 0 0 0 0.064,-0.24499 z m -0.1038,0.37807 a 3.8718469,3.8718469 0 0 1 -0.086,0.23088 3.8718469,3.8718469 0 0 0 0.086,-0.23088 z m -0.1412,0.36295 a 3.8718469,3.8718469 0 0 1 -0.1462,0.30145 l -21.7477,39.21567 21.7478,-39.21567 a 3.8718469,3.8718469 0 0 0 0.1471,-0.30145 z m 3.4934,0.64424 60.2224,19.03265 -23.1874,41.45689 -58.9329,-21.03897 21.8979,-39.45057 z m -140.4311,2.91569 a 3.0974775,3.0974775 0 0 1 0,0.002 3.0974775,3.0974775 0 0 1 -0.016,0.0242 3.0974775,3.0974775 0 0 1 -0.1493,0.23289 3.0974775,3.0974775 0 0 1 0,0.004 3.0974775,3.0974775 0 0 1 -0.025,0.0323 3.0974775,3.0974775 0 0 1 -0.1653,0.2097 3.0974775,3.0974775 0 0 0 0,10e-4 3.0974775,3.0974775 0 0 1 -0.01,0.009 3.0974775,3.0974775 0 0 1 -0.2036,0.21072 3.0974775,3.0974775 0 0 1 -0.01,0.003 3.0974775,3.0974775 0 0 1 -0.041,0.0353 3.0974775,3.0974775 0 0 1 -0.1875,0.15929 3.0974775,3.0974775 0 0 1 -0.1049,0.0736 3.0974775,3.0974775 0 0 1 -0.1472,0.10082 3.0974775,3.0974775 0 0 1 -0.1189,0.0665 3.0974775,3.0974775 0 0 1 -0.1553,0.0847 3.0974775,3.0974775 0 0 1 -0.085,0.0383 3.0974775,3.0974775 0 0 1 -0.2047,0.0867 3.0974775,3.0974775 0 0 0 0.2047,-0.0867 3.0974775,3.0974775 0 0 0 0.085,-0.0383 3.0974775,3.0974775 0 0 0 0.1552,-0.0847 3.0974775,3.0974775 0 0 0 0.119,-0.0665 3.0974775,3.0974775 0 0 0 0.1472,-0.10082 3.0974775,3.0974775 0 0 0 0.1049,-0.0736 3.0974775,3.0974775 0 0 0 0.1875,-0.15929 3.0974775,3.0974775 0 0 0 0.041,-0.0353 3.0974775,3.0974775 0 0 0 0,-0.003 3.0974775,3.0974775 0 0 0 0.2037,-0.21072 3.0974775,3.0974775 0 0 0 0.01,-0.009 3.0974775,3.0974775 0 0 0 10e-4,-10e-4 3.0974775,3.0974775 0 0 0 0.1653,-0.2097 3.0974775,3.0974775 0 0 0 0.025,-0.0323 3.0974775,3.0974775 0 0 0 0,-0.004 3.0974775,3.0974775 0 0 0 0.1492,-0.23289 3.0974775,3.0974775 0 0 0 0.016,-0.0242 3.0974775,3.0974775 0 0 0 10e-4,-0.002 z m 2.8653,0.48191 47.3537,17.14936 -20.3715,37.01781 -46.3466,-18.75742 19.3644,-35.40975 z m -111.9941,2.76548 38.0532,15.6048 -18.1576,33.43772 -37.2486,-16.92251 17.353,-32.12001 z m 159.9619,13.16498 a 3.8718469,3.8718469 0 0 0 0.2671,0.14115 3.8718469,3.8718469 0 0 0 0.3398,0.14013 l 58.9157,21.03292 -58.9157,-21.03292 a 3.8718469,3.8718469 0 0 1 -0.3378,-0.14013 3.8718469,3.8718469 0 0 1 -0.2671,-0.14115 z m 5.543,3.44902 52.6025,19.04981 -21.6328,39.00898 -51.4723,-20.83228 20.5026,-37.22651 z m -122.5277,1.01021 41.841,17.15742 -19.1566,35.05486 -40.9478,-18.60418 18.2634,-33.6081 z m 47.2671,19.38251 46.2236,18.95604 -20.2697,36.8333 -45.2275,-20.54797 19.2736,-35.24137 z m 134.7208,1.14026 58.7736,21.28597 -23.0584,41.225 -57.4962,-23.2701 21.781,-39.24087 z m -82.4873,20.2798 51.3321,21.05106 -21.5179,38.80332 -50.215,-22.81439 20.4008,-37.03999 z m 58.0245,23.79435 57.3389,23.51408 -22.9293,40.99614 -56.0757,-25.47703 21.6661,-39.03319 z"
       id="rect4138"
       inkscape:connector-curvature="0" />
  </g>
</svg>
